<?xml version="1.0" encoding="utf-8"?>
<!-- Generator: Adobe Illustrator 19.0.0, SVG Export Plug-In . SVG Version: 6.00 Build 0)  -->
<svg version="1.1" id="Layer_1" xmlns="http://www.w3.org/2000/svg" xmlns:xlink="http://www.w3.org/1999/xlink" x="0px" y="0px"
	 viewBox="-99 101 300 300" style="enable-background:new -99 101 300 300;" xml:space="preserve">
<style type="text/css">
	.st0{fill:#FFFFFF;}
	.st1{fill:#9E9E9E;}
	.st2{stroke:#000000;stroke-width:1.5;}
</style>
<g>
	<g>
		<circle class="st0" cx="51" cy="251" r="115"/>
		<g id="XMLID_273_">
			<path id="XMLID_278_" class="st1" d="M161.2,237.6c-0.9-9.5-3-18.5-6.3-26.8c-1.6-4.2-3.5-8.2-5.6-12.1c-1.1-1.9-2.2-3.9-3.4-5.7
				l-1.8-2.8l-2-2.7c-8.2-11.1-17.7-20.4-28.8-27.8c-11.1-7.4-23.8-13.1-38.3-15.8c-7.2-1.4-14.2-1.9-21.2-1.8
				c-7,0.1-13.9,1-20.9,2.5c-14.1,2.8-28.4,8.7-41.2,18.1c-12.7,9.3-23.8,21.8-31.3,36.5c-0.4,0.8-1.1,1.9-1.7,3.2
				c-0.6,1.3-1.3,2.8-1.9,4.1c-1,2.8-1.7,5-0.9,4.8c-6,14.8-8.4,30.8-7.5,46.5c1,15.7,5.6,31.1,13.5,44.5c3.3,5.7,6.9,11.3,11,16.6
				c4.1,5.3,8.7,10.2,13.9,14.4c4.2,3.3,8.5,6.5,13,9.3c4.5,2.8,9.2,5.4,14,7.6c4.8,2.1,9.8,4.1,14.9,5.5c1.3,0.4,2.6,0.7,3.8,1
				l1.9,0.5c0.6,0.2,1.3,0.3,1.9,0.4l3.9,0.7l3.9,0.5c1.5,0.1,3.8,0,6,0.1c1.1,0,2.2-0.1,3.2-0.1s1.8,0,2.4,0
				c14.5,0.8,28.5-2.1,41.1-7.5s23.8-13.3,33.4-22.7c0.9-0.9,1.8-1.8,2.7-2.7s1.7-1.8,2.5-2.7c0.4-0.4,0.8-0.9,1.2-1.3
				c0.4-0.4,0.8-0.9,1.1-1.4c0.7-0.9,1.5-1.8,2.2-2.7s1.4-1.8,2.1-2.8c0.4-0.5,0.7-0.9,1.1-1.4c0.3-0.5,0.7-1,1-1.4
				c0.7-1,1.4-1.9,2-2.9c0.7-1,1.3-2,2-3.1c0.1-1,1.3-3.1,2.6-5.6c0.9-1.7,2.9-5.2,5-9.9c2.1-4.7,4.3-10.4,5.9-16.2
				c0.4-1.5,0.8-2.9,1.1-4.4c0.3-1.4,0.6-2.9,0.9-4.3c0.3-1.4,0.5-2.7,0.7-4c0.1-0.6,0.2-1.3,0.3-1.9c0.1-0.6,0.1-1.2,0.2-1.8
				c0.1-1.2,0.3-2.3,0.4-3.2c0.1-1,0.2-1.9,0.2-2.7c0.1-1.6,0.3-2.7,0.4-3.2c0.1-0.2,0.1,0.9,0,3.1c0,2.2-0.1,5.4-0.5,9.3
				c-0.8,7.8-2.9,18.3-6.8,28.3l-0.7,1.9c-0.3,0.6-0.5,1.2-0.8,1.8c-0.5,1.2-1.1,2.4-1.6,3.6c-1.2,2.4-2.3,4.7-3.6,6.8
				c-1.2,2.2-2.5,4.2-3.7,6.2c-0.6,1-1.3,1.9-1.9,2.8c-0.6,0.9-1.2,1.8-1.8,2.5c-4.7,6.4-8.4,10.1-8,10c0.2-0.2,1-0.9,2.2-2.1
				c0.6-0.6,1.2-1.4,2-2.3s1.6-1.8,2.4-2.9c3.5-4.3,7.6-10.3,11.1-16.7c3.5-6.5,6.2-13.4,8-19c1.7-5.6,2.6-9.9,2.9-11.1
				c-1.1,6.3-2.7,12.3-4.7,17.9c-0.5,1.4-0.9,2.8-1.5,4.1c-0.6,1.3-1.1,2.6-1.6,3.9c-1.2,2.5-2.3,5-3.6,7.4
				c-1.2,2.4-2.6,4.6-3.9,6.8c-0.7,1.1-1.4,2.1-2.1,3.1c-0.3,0.5-0.7,1-1,1.5s-0.7,1-1.1,1.5c-0.7,1-1.4,1.9-2.1,2.9
				c-0.7,0.9-1.5,1.8-2.2,2.7c-1.4,1.8-2.9,3.4-4.4,5c-5.8,6.3-11.7,11.2-17.1,15.1c-5.4,3.9-10.4,6.7-14.6,9
				c-2.2,1.1-4.1,2.1-6,2.8c-1.8,0.8-3.4,1.5-4.9,2.1c-1.5,0.6-2.8,1.1-3.9,1.5c-1.1,0.4-2.1,0.7-2.9,1c-1.6,0.5-2.4,0.8-2.7,0.9
				s0.1,0.1,0.9-0.2c0.8-0.2,2.2-0.6,4-1.2c0.9-0.3,1.9-0.6,3-1s2.3-0.8,3.6-1.3c5-2,11.3-4.9,17.9-9c6.5-4,13.3-9.2,19.4-15.1
				c6.1-6,11.5-12.7,15.9-19.4c5.7-8.2,12.3-21.1,16.4-39.8c-0.3,1.4-0.5,3-0.9,4.7c-0.4,1.7-0.7,3.5-1.2,5.4
				c-1,3.8-2.1,7.8-3.5,11.6c-2.7,7.6-6.1,14.1-7.7,16.4c-3.4,5.5-6.1,9.3-8.4,12.2c-2.3,3-4.2,5.2-6.1,7.4c-1,1.1-2.1,2.2-3.3,3.4
				c-1.2,1.2-2.6,2.4-4.2,3.8c-3.3,2.7-7.4,6.1-13.8,10c-5.3,3.1-11.7,6.5-18.9,9.4s-15.1,5.3-23.2,6.7c-8,1.5-16.1,2.1-23.5,1.9
				c-7.4-0.1-14-1-19.2-2c1.4,0.2,3,0.3,4.8,0.5s3.8,0.3,5.9,0.4c4.2,0.2,9,0.1,13.8-0.1c9.7-0.6,19.9-2.5,27.6-4.3
				c-8.5,1.7-15.2,2.5-21,3.1c-1.5,0.1-2.9,0.2-4.2,0.3c-0.7,0.1-1.4,0.1-2,0.2c-0.7,0-1.3,0-2,0.1c-1.3,0.1-2.6,0.1-3.8,0.2
				c-1.3,0-2.5,0-3.8,0c-2.5,0.1-5.1-0.2-7.7-0.3c-1.3-0.1-2.7-0.3-4.1-0.4c-0.7-0.1-1.4-0.2-2.2-0.3c-0.7-0.1-1.5-0.3-2.2-0.4
				c-6-1.1-13.1-2.9-21.5-6.7c-3.1-1.4-6.8-3-10.6-5c-1.7-1.1-3.5-2.1-5.2-3.3c-0.9-0.6-1.7-1.2-2.7-1.8c-0.9-0.7-1.8-1.4-2.8-2.1
				c-12.2-8.9-22.2-19.3-30.1-31c-7.9-11.8-13.7-24.9-16.6-39.6c0.3,1.2,0.4,2.3,0.5,3.4c0,0.5,0.1,1.1,0.1,1.6
				c0.1,0.6,0.2,1.1,0.4,1.8c0.4,1.6,0.7,3.1,1.2,4.7c0.5,1.5,0.9,3,1.4,4.5c1.1,3,2.1,5.9,3.4,8.7c2.5,5.6,5.5,10.9,8.9,15.9
				c3.4,5,7.3,9.8,11.5,14.5c4.3,4.6,9.1,9.1,14.4,13.4c2,1.7,4.7,3.4,7.4,5c1.4,0.8,2.8,1.5,4.1,2.3c1.3,0.8,2.7,1.4,3.9,2.1
				c0.6,0.3,1.2,0.7,1.8,1c0.6,0.3,1.2,0.6,1.8,1c1.2,0.6,2.4,1.3,3.6,1.9c2.4,1.1,4.8,2.4,7.2,3.3c4.8,2.1,9.6,3.9,14.7,5.3
				C17.5,362,6.6,358-3.5,352.1c-10.2-5.8-19.5-13.4-27.3-21.7c-0.8-0.8-1.7-1.7-2.6-2.6s-1.8-1.8-2.7-2.7s-1.7-1.8-2.5-2.6
				c-0.8-0.8-1.5-1.6-2.1-2.3c3.1,4.3,6.5,8.4,10.2,12.3c1.8,2,3.8,3.8,5.7,5.6c1,0.9,2,1.8,3,2.6l1.5,1.3c0.5,0.4,1,0.8,1.6,1.2
				c7.3,5.8,16,11.1,25.4,15c4.7,2.1,9.6,3.7,14.5,5.1c1.2,0.3,2.5,0.6,3.7,0.9c0.6,0.2,1.2,0.3,1.9,0.5l1.9,0.4
				c1.2,0.3,2.5,0.5,3.7,0.8c1.2,0.2,2.5,0.4,3.7,0.6c9.9,1.5,19.6,1.6,28.4,1c8.8-0.6,16.7-2,23.2-3.4c0.8-0.3,1.5-0.5,3-1
				c0.4-0.1,0.9-0.1,1.5-0.3c4.9-1.6,10.7-3.8,16-5.9c0,0-0.2,0.1-0.6,0.3c-0.4,0.2-0.9,0.4-1.5,0.7c-0.6,0.3-1.3,0.6-2.1,0.9
				s-1.6,0.7-2.4,1c-1.7,0.6-3.3,1.3-4.6,1.8c-1.3,0.4-2.1,0.7-2.1,0.7c-17.3,7.1-38.2,9.4-58.5,6C16,365-3.7,355.9-19.8,343.2
				c-3.6-2.8-8.1-6.9-12-11.5c-1-1.1-2-2.3-2.9-3.4s-1.9-2.3-2.7-3.4c-0.9-1.1-1.7-2.2-2.5-3.2c-0.8-1.1-1.5-2-2.2-2.9
				c-4-5.4-7.5-11.2-10.5-17.3s-5.4-12.6-7.2-19.2c-1.8-6.6-3-13.4-3.6-20.2c-0.5-6.8-0.5-13.6,0.1-20.2c1.1-12,3.9-23.8,8.5-34.9
				c2.2-5.5,5-10.9,8.1-15.9c1.5-2.6,3.2-5,4.9-7.5c1.8-2.4,3.5-4.8,5.5-7c15.1-18.2,35.7-31.5,58-37.7c22.3-6.3,46.2-5.5,67.5,1.8
				c21.4,7.2,40.1,21,53.2,38.5c1.3,1.6,2.6,3.1,3.8,4.8c-0.4-0.8-0.8-1.6-1.3-2.3l0.8,1.2l0.8,1.2c0.5,0.8,1,1.6,1.5,2.4
				c3.2,4.6,6,9.4,8.3,14.5c2.3,5,4.1,10.2,5.4,15.5c0.4,2.2-0.1,0.3-1.1-2.5c-0.2-0.7-0.5-1.4-0.8-2.2c-0.3-0.7-0.6-1.5-0.9-2.2
				c-0.6-1.4-1.1-2.7-1.6-3.4c0.5,1.1,0.8,2.3,1.2,3.2c0.3,0.9,0.5,1.4,0.5,1.4s-0.4-0.3-0.8-0.7c0.4,0.9,0.6,1.6,0.8,2.2
				c0.1,0.7,0.2,1.3,0.3,1.9c-1.9-5.6-4.3-11.1-7.2-16.4c-2.9-5.2-6.2-10.3-9.9-15c-7.3-9.5-16.3-17.7-26.4-24.3
				c1,1,2.9,2.6,4.9,4.1c1,0.8,2,1.6,2.9,2.3c0.9,0.7,1.8,1.4,2.4,2c6.2,5,11.8,10.7,16,16.6c3.1,4,5.9,8.2,8.3,12.7l0.9,1.7
				c0.3,0.6,0.6,1.1,0.8,1.7c0.5,1.1,1.1,2.3,1.6,3.4c1,2.4,2,4.7,2.8,7.1c0.9,2.4,1.6,4.8,2.3,7.2c0.3,1.2,0.6,2.4,0.9,3.6l0.4,1.8
				l0.4,1.8c1.1,4.8,1.6,9.7,2,14.5c0,1.8,0.1,3.5,0,5.3c-0.1,1.7-0.2,3.5-0.3,5.2c-0.1,1.1-0.2,1.4-0.4,1c-0.1-0.2-0.1-0.5-0.2-1
				c-0.1-0.4-0.2-1-0.2-1.6c-0.2-1.3-0.2-2.9-0.4-4.6C161.4,241.2,161.3,239.3,161.2,237.6z M-54.7,216.9c2.3-6.7,5.3-13,8.9-19.1
				c0.6-1.1,1.2-2.2,1.8-3.3c0.6-1.1,1.3-2.1,1.9-3.2c0.8-1.3,1.7-2.7,2.6-4.1c0.4-0.7,0.9-1.4,1.3-2.1c0.5-0.7,1-1.4,1.4-2.1
				c8.1-10.7,18-19.8,29.1-26.9c-5.7,3.3-11.3,7.3-16.7,12.1c-5.4,4.8-10.7,10.5-15.5,17.6c3.1-4.6,6.3-8.9,9.9-12.7l1.3-1.5
				l1.4-1.4c0.9-0.9,1.8-1.9,2.8-2.8c1.9-1.7,3.8-3.5,5.8-5.1c7.9-6.6,16.6-11.7,25.6-15.6c4.5-1.9,9.1-3.6,13.8-4.9
				c2.3-0.7,4.7-1.2,7.1-1.7c1.2-0.3,2.4-0.4,3.6-0.7c1.2-0.2,2.4-0.5,3.6-0.6c2.4-0.3,4.8-0.7,7.2-0.8c1.2-0.1,2.4-0.2,3.6-0.3
				l3.6-0.1h1.8H53c1.2,0,2.4,0.1,3.6,0.1c1.2,0.1,2.4,0.2,3.6,0.2c1.2,0.1,2.4,0.1,3.6,0.3c5.9,0.4,11.7,1.5,17.5,2.9
				c2.9,0.7,5.8,1.6,8.6,2.4c1.4,0.5,2.8,1,4.3,1.5c1.4,0.5,2.8,1.1,4.2,1.7c7.9,3.2,15.3,7.2,22.1,11.9
				c-10.4-7.8-22.2-13.9-34.8-17.6c-6.3-1.9-12.7-3.2-19.3-4c-1.6-0.2-3.3-0.4-4.9-0.5l-4.9-0.3h-5c-1.7,0-3.3,0.1-5,0.2
				c-13.2,0.7-26.4,3.7-38.8,9c-12.3,5.3-23.8,12.8-33.7,22.2c-9.9,9.3-18.1,20.6-24.2,32.9c-3.1,6.2-5.6,12.7-7.5,19.4
				s-3.2,13.6-3.8,20.6c-0.7,7-0.7,14-0.2,21.1c0.6,7,1.8,14,3.7,20.9c3.7,13.7,10,26.8,18.5,38.5
				C-60.4,290.2-66.2,251.3-54.7,216.9z M-56.9,229.8c-2.5,14.1-2.3,28.6,0.5,42.4c1.8,9.4,4.9,18.7,9.1,27.5
				c4.3,8.7,9.5,16.8,15.4,23.8S-19.4,336.4-13,341c6.5,4.7,12.9,8.1,18.5,10.4c-7.5-3.6-14.7-8.1-21.4-13.3
				c-6.7-5.3-12.8-11.4-18.2-18.2c-2.7-3.4-5.2-7-7.6-10.7c-1.1-1.9-2.3-3.8-3.3-5.7c-1-2-2.1-3.9-3-5.9c-3.8-8-6.7-16.5-8.5-25.4
				c0.4,2.1,0.9,4,1.2,5.6c0.4,1.6,0.8,3.1,1.2,4.3c0.3,1.2,0.6,2.2,0.9,3c0.3,0.8,0.5,1.4,0.6,1.8c0.6,1.7,0.2,0.4-1-3.2
				c-1-3.7-2.8-9.8-3.9-18c-0.1-1-0.3-2.1-0.4-3.2c-0.1-0.5-0.1-1.1-0.2-1.6c0-0.6-0.1-1.1-0.1-1.7c-0.1-1.1-0.2-2.3-0.2-3.5
				c-0.1-1.2-0.1-2.4-0.1-3.7c-0.2-5,0.1-10.4,0.8-16.1c0-0.5,0.1-1.4,0.2-2.4c0.1-0.5,0.1-1.1,0.2-1.7
				C-57.2,231.2-57,230.5-56.9,229.8z"/>
			<path id="XMLID_277_" class="st1" d="M103.4,145.1c13.9,7.2,26.4,17.2,36,29.1c-3.3-4.8-6.5-9-11.6-13.9
				c-0.9-0.8-1.8-1.6-2.6-2.4c-0.9-0.8-1.9-1.5-2.8-2.3l-1.4-1.1l-1.5-1.1c-1-0.7-2-1.4-3-2.2c-1.1-0.7-2.1-1.3-3.2-2l-1.6-1
				l-1.7-0.9c-1.1-0.6-2.2-1.2-3.3-1.9c-1.1-0.6-2.3-1.1-3.4-1.7c-1.1-0.6-2.3-1.1-3.5-1.6s-2.4-1-3.6-1.5c-2.4-0.9-4.8-1.9-7.3-2.6
				c-4.9-1.6-9.9-2.8-14.9-3.8c-14.3-2.8-29.3-2.8-44.1,0.1c-14.8,2.9-29.1,8.9-42,17.6c-12.8,8.7-24,20-32.7,33.3
				c-8.6,13.3-14.7,28.4-17.4,44.3c-0.2,0.8-0.4,1.8-0.5,3c-0.2,1.2-0.3,2.5-0.5,3.9s-0.2,2.9-0.3,4.3c0,0.7-0.1,1.4-0.1,2.1
				c0,0.7,0,1.4,0,2c1.1-20.3,7.4-39.9,17.7-56.5c0.6-1.1,1.3-2.1,2-3.1l2.1-3l2.2-2.9l1.1-1.5l1.2-1.4l2.3-2.8
				c0.8-0.9,1.6-1.8,2.4-2.7c1.6-1.8,3.4-3.5,5.1-5.2c6.9-6.7,14.7-12.5,23-17.3s17.1-8.4,26.2-11.1c9.1-2.6,18.5-4,27.8-4.2
				c9.3-0.3,18.7,0.7,27.8,2.7c4.6,0.9,9,2.3,13.4,3.8c1.1,0.4,2.2,0.8,3.2,1.2c1.1,0.4,2.2,0.8,3.2,1.3
				C99.2,143.1,101.4,144,103.4,145.1z"/>
			<path id="XMLID_276_" class="st1" d="M-26,339c4.5,3.9,9.2,7.6,14.1,10.9c4.9,3.2,10,6.2,15.1,8.7c-4.5-2.5-9.7-5.8-14.8-9.3
				c-5.1-3.6-9.9-7.7-14.1-11.5c-11.7-10.8-21.2-23.9-27.7-38.2C-47.3,314-38.2,327.6-26,339z"/>
			<path id="XMLID_275_" class="st1" d="M-63.6,245c-0.1,1.6-0.2,3.2-0.2,4.9c0,1.6,0,3.3,0,4.9c0.4,15,3.8,30.5,10.4,44.8
				c-6.4-15.4-9.4-31.8-9.2-48.2c-0.3,0-0.5-0.7-0.7-1.8C-63.5,248.4-63.6,246.8-63.6,245z"/>
		</g>
	</g>
	<g id="XMLID_1157_">
		
			<image style="overflow:visible;opacity:0.5;" width="208" height="172" xlink:href="52B8BD12.png"  transform="matrix(1 0 0 1 -50 168)">
		</image>
		<g>
			<g>
				<g id="XMLID_32_">
					<path id="XMLID_34_" class="st2" d="M-36.4,225.5l0.8,0.4l-1.6,4l-0.4,5.2v9.4v11.4l0.8-9l1.6-9v-4.4l1.2-9.6l0.4-6.6h0.8
						l-0.4,6.6l-1,8l0.8-3.2l0.8,0.4l-1,3.6l0.8,0.4l-1.4,4.4l-0.2,1.6v6v15.6v17v16.4v7l0.8,5.8h0.2l-0.2,1.4l0.4,2.8l1,7.2
						l0.6,3.6h-0.8l-0.6-3.6l-0.8-6l-0.2,1.8h-0.8v-0.4l-0.4-3.2v-2.6v-4.6l-0.2-3.4l-0.2-2.2l-1.4-14.8l-0.8-12l-0.4,5.2v16.8
						l1.2,15.6l1,9.8l0.4,3.6h-0.8l-0.4-3.6l-1-9.8l-1.2-15.6v-16.8l0.8-12.8l-0.2-7v-11.8v-9.4v-0.6l-1,2.4l-1.8,7.2l-0.8,11.4
						l-0.2,15.2v15.6l0.6,13.2l1.2,10l0.6,6.2l0.4,4.4l0.4,2.8h-0.8l-0.4-2.8l-0.4-4.4l-0.6-6.2l-1.2-10l-0.6-13.2v-15.6l0.2-15.2
						l0.8-11.4l1.8-7.6l1.6-3.4l0.4,0.2l0.2-3.4L-36.4,225.5z M-25.4,182.7l3-0.8l2.8,0.4l2,2.6v4.2l-0.6,4.6l-1.8,4.2l-4,5
						l-5.2,5.2h-5.6l-3.6-1.4l-2.8-3.8l-0.2-6.8l0.8-7.4l2.6-5.6l3.4-3h3.8l2.8,0.2L-25.4,182.7z M-38.6,187.7l0.8,0.4l-1,1.8v3.6
						v3.8l0.4,4.4l1.6,2l1.2,0.4l-0.6-1.2l0.6-3.6l2-5.6l0.8-1.6v-1l2.4-4.6l1.2-0.6l2.6-3h0.2l-2-1.8l-2.4-0.2h-3.4l-3,2.6
						l-2.6,5.6l-0.8,7l0.2,6.4l2.4,3.4l3.2,1.4h5.2l5.2-4.8l3.6-5l1.8-4.2l0.6-4.2v-3.8l-1.6-2.2l-2.4-0.4l-2.8,0.6l1.2,3.6v4.4
						l-0.6,2.8l-0.2,1.4l-1.8,4.6l-3,3.4l-0.8,0.6l-1,1.2h-0.8l-0.2,0.2H-35l-0.2-0.4l-2-0.6l-2-2.4l-0.4-4.8v-3.8v-3.6L-38.6,187.7
						z M-37.4,263.3l0.2,5.8l1,13.8l0.6,5.2l-0.2-5.8v-12.8v-13.8l0.2-10.8l-0.4,2l-1.2,13.6L-37.4,263.3z M-32.8,196.1l-2,3.6
						l-0.6,3.2l0.8,1.6h2.2l1.6-1l1.2-1.4l2.2-3.2l1.6-3.6l0.4-1.4l0.2-2.2v-3.8l-2.4-1.8l-1,0.4l-1.4,1.6l-2,4.2v3.8H-32.8z
						 M-29.6,228.7l0.8,0.4l-1,2l-0.2,7.2v13v13l0.2-3.6l0.6-13l0.8-12l1.4-8.4h0.8l-1.4,8.4l-0.8,12l-0.6,13l-0.8,14.2v10.2l0.6-15
						l1.4-15.6l1-14l0.6-9.4l0.6-2.6h0.8l-0.6,2.6l-0.6,9.4l-1,14l-1.4,15.6l-0.6,15v13.8v5l0.8,7.8l0.4,6.6v2.8h-0.8v-2.8l-0.4-6.4
						v10v4.8h-0.8v-4.8v-6.2h-0.8v-2.2v-2.4v-7.6v-13.4v-0.8l-0.2-5.4v-16.6v-16v-13l0.2-7.2L-29.6,228.7z M-22.8,243.9h0.8l-1.8,9
						l-1.2,9.8v1.4l-0.4,15l-0.2,13.6v10.8v7v3.4h-0.8v-3.4v-7v-10.8l0.2-10.4l-0.4,11.8l-0.4,10.4l-0.2,5H-28l0.2-5l0.4-10.4
						l0.4-13.4l0.8-14.6l0.4-3.4l0.2-13.6l1.4-12.2l0.6-8.4l1.2-4.2l0.8,0.4l-1.2,3.8l-0.6,8.4l-1.4,12.2v6l0.2-2.2L-22.8,243.9z
						 M-27.6,185.3l2.8,2v-0.4l-1.2-3.4l-0.2,0.2L-27.6,185.3z"/>
					<path id="XMLID_33_" class="st2" d="M23.6,317.5l-0.4,0.4l-1.4-1.2v2.2H21v-2.2v-0.6l-0.4-0.4v1.2v5l0.6,3.6h-0.8l-0.6-3.6v-5
						v-3.2l-1-2.4l-1-3.8l-0.2,3.8l-0.4,5.6l-0.6,4.2h-0.8l0.6-4.2l0.4-5.6l0.6-7l-0.6-3.8l-1-7l-1-9.6l-1-10l-0.2-4l-0.2,1.8
						l-0.8,12.4l-1.4,10.8v9.2v8.8v5.6v3.4h-0.8v-3.4v-5.6v-8.8v-9.2l1.4-10.8l0.8-12.4l0.6-7.4l-0.2-2l-0.4-12.4v-12.6l0.4-11
						l1.2-9.6l1.6-7.6l1-4.8l1.2-1.8h0.8l0.6,0.6l0.2-1.2l1.2-7.4l1-4l0.6-2l0.8-0.4l2.8,2.2l2,3v-0.2l1.8-1.4h0.8l1.2,2.2l2.2,2.8
						l1.4,2.6l0.4-1.2l1-2.8h0.8l2.8,3.6l1.4,6.2l2.2,8.8l1.4,5.6l0.6,1.4l3,8.4l4.2,9.6l3.6,10.8l4.4,10.8l4.4,11l4,11l3.8,9.6
						l3.2,6.8l1.4,3l1.8-6.4l3.4-8.8l3.6-10l4.2-9l2.8-10.4l3.2-14.2l4.4-14.2l5-11.4l4.6-8.8l4.2-7l1.4-2.4l1.4-2.8l3.4-7.6
						l3.2-5.6l2.8-3.4l2-2.4l2.6-2.2l0.8,0.4l1.8,6v0.4l0.2-0.4l3-3l2.2-1.8l1.8,1.8v5.8l0.4,8.4l0.4,10.4v10.8v7l0.8,4.6l1,10
						l0.6,11.6v12.2v11.8v10l-1,8.6l-1.4,7l-1.4,5.2l-0.6,1.6v2v2.6h-0.8v-2.6v-0.8l-0.4,3l-0.6,2.2l-0.4-0.2l-0.2,0.8l-0.8-0.4
						l0.8-2.6l0.6-4l-1.6-1.4l-0.6,2.8l-0.6,2.8h-0.8l0.6-2.8l0.4-2.2h-0.4v-2.4l-0.2-3.6l-0.2,0.6l-1.6,4.6l-0.6,3l-1.4,2l-0.8-0.4
						l1.4-1.8H132l0.4-2l0.2-2.4l0.4-4.4l0.2-6.2v-7l-0.2-8.8l-0.4-8.6l-0.6-4.8l-1.6-11.6l-0.6-11.2l-1-10.6l-0.8-8.8l-0.4-7
						l-2.6,5.4l-4,10.2l-4.8,12.6l-4,13.2l-4.6,11.4l-4.8,10.4l-4.6,9.6l-4.2,9.4l-3.6,8.4l-3.2,6.6l-0.2,0.2l-0.4,1.8l-2.2,5.6
						l-1.8,4.4l-0.8,2.4l-1.8,3.2h-0.8l-1.6-1l-1.8-1.8l-1.6-3.2l-3.2-3.8l-2.8-4l-3-6.2l-4.4-8.8l-4.4-11.2L52,275.7l-0.6-1.6l-1-2
						l-5-9.2l-4.6-9.4l-4-10.6l-4.2-11l-2-6.4v0.6l-1.2,13l-1.2,12.6l-0.4,12.8v11.8l1,10.4l0.6,8.8l0.6,5.6l0.6,5.2h-0.8l-0.6-5.2
						l-0.6-5.6l-0.6-8.8l-1-10.4v-11.8l0.4-12.8l1.2-12.6l1.2-13l0.4-2.2l-1-3l-0.6-2.6l-3.2-5.8l-0.4,2.6l-1.6,10.4l-1.2,11.2
						l-0.4,12.4v6.4l0.8,11.8l0.6,11l0.2,10.8l0.4,11l0.8,9.4l0.4,3.4l1,2.4l1.2,4.4l-0.8,0.4l-0.8-3l0.4,4.6h-0.8l-0.4-5l-0.6-3.6
						l-1.2-3.6l-1.2-8.2v2.6v3.8l0.8,3.6l1.4,5.2l-0.8,0.4l-1.4-5.6v4.4L23.6,317.5z M18.4,202.9l-0.8,1.8l-1,4.4l-1.6,7.6l-1.2,9.6
						l-0.4,11v12.6l0.2,7.6l1.2-13l1.6-12.6l0.4-2.4l0.2-6.2l1.2-11l1.2-8.6L18.4,202.9z M14,264.3l0.6,9.6l1,10l1,9.6l1,7l0.4-5.6
						l0.2-10l-0.8-12l-0.6-13v-13.2v-11.6l-1.2,9.4l-1.2,13.4L14,264.3z M17.6,229.7v4.8v12.2v13.2l0.6,12.8l0.4-12.2l-0.4-11.6v-14
						l0.2-8.8L17.6,229.7z M17.8,225.5l0.8-3.8l1-9.4l0.6-6l0.4-1.4l-0.6-0.4l-1,7.8l-1.2,11C17.8,223.3,17.8,225.5,17.8,225.5z
						 M19.6,308.3l-0.8-10v-3.4l-0.6,8.4v1l0.2,2L19.6,308.3z M20.8,216.3l-1.4,5.4L19,234.9v7l0.6-9.2l0.8-11.4l0.4-4.4V216.3z
						 M21,291.3l-0.8-10.6l-0.4-10.8l-0.2-10.8v-12.2l-0.2,11.6v2v1.8l0.2,12.6v11.8v4.8l0.4,4.2l1,7.8v-9.6V291.3z M21,314.9v-3.6
						v-3.4l-0.6-2.8l-0.6-5.2l0.6,8.4l0.2,5.4L21,314.9z M21,212.7v-2v-4.4l-0.6,6l-0.4,4.4l0.8-3.2L21,212.7z M27,195.3l0.6-1.2
						l-2-3.4l-2.6-1.8l-0.4,2l-1,3.6l-1.2,7.4l-0.2,1.8l0.4,0.4l0.4-1.6l0.8-2.6l1.4-1.6h0.2l0.4-1.6h0.8l0.8,1l1-1.6L27,195.3z
						 M21,280.7v-7.4v-11.6v-6.2l-0.2-12.8v-11.4l-0.4,3.6v12v12.2l0.2,10.8L21,280.7z M23,207.3l-0.2,0.4l-0.2,1l-0.4,3.2l-0.6,5
						v1.4l0.2-1l1.4-5.8l1-1.8L23,207.3z M24.8,211.1l-0.2-0.4l-0.6,1.2l-1.4,5.4l-1,6.8v6.4v4.4l1-9.4l1.6-10.4L24.8,211.1z
						 M21.8,204.9l0.4,0.4l0.2-1.4l0.2-1.6L21.8,204.9z M21.8,291.3l0.8,10l1.2,8l-0.8-9.2l-0.4-11l-0.2-10.8l-0.6-11v6v10.8V291.3z
						 M22.8,201.3l0.2-1.8l-0.4,0.8l-0.4,1.2L22.8,201.3z M23.2,206.3l1.4,2.6v-0.2l0.6-0.6l0.2-2l-0.8-2l-0.6-0.6L23.2,206.3z
						 M23.6,202.1l0.6-1.8l-0.4-0.8l-0.4,2.6C23.4,202.1,23.6,202.1,23.6,202.1z M24.6,199.3l0.2-0.6l0.2-0.2l-0.6-1l-0.2,1
						L24.6,199.3z M25.6,204.5l0.2-1.2l-1-2l-0.4,1.2l-0.2,0.2l1.2,1L25.6,204.5z M26,201.9l0.4-1.8l-0.8-1l-0.4,1.2l0.4,0.6
						L26,201.9z M25.6,210.9l0.6,1.2l1.8,3.4l-1-4.6l-1-2.8L25.6,210.9z M26.8,197.1l-0.8,1.4l0.6,0.6L26.8,197.1z M26.6,207.1l2,2
						l-1.6-3.2l-0.6-1.2l-0.2,1.4L26.6,207.1z M26.6,203.3l1.2,2.2l3.2,6.6l0.8,1.8l0.4-1.8l-1.4-3.4l-3.2-6.8l-0.6-0.8L26.6,203.3z
						 M29.4,217.9l0.6,1l0.8,1.6l0.2-2.2l-1.2-3.6l-1.8-5l-1-1.2l0.8,2L29.4,217.9z M27.8,195.7l-0.6,4.2v0.2l1.2,1.4l3.2,6.8l1,2.4
						l1.2-5.2l-2-4l-3.6-6.4L27.8,195.7z M30.2,192.3l-1.4,1.2l2,0.2L30.2,192.3z M31.2,194.5l-2.4-0.2l0.2,0.4l3.6,6.4l1.4,3.2
						l0.2-0.6l0.6-1.8l-1-2.2l-2.4-4.6L31.2,194.5z M28.8,209.7l1.8,4.6l0.8,2.4l0.2-1l-1.4-3.2L28.8,209.7z M34.6,230.3l-1.4-2.8
						l-2.2-4.4v0.8l2.4,7.6l4.2,11l4,10.6l4.6,9.4l2.8,5.4l-0.8-2.2l-3.6-9.2l-3.8-9l-3.2-8.4l-2.8-8.4L34.6,230.3z M33.6,226.3
						l-1.2-3.8l-0.8-2.6l-0.2,1.8L33.6,226.3z M35.4,229.9l3.4,6.2l4,10.6l4.4,11.4l4.4,11.6l4.6,10.6l2.8,7.2l1.6,2.8l4.8,8.6
						l4.2,7.6l1.6,2.8l-1.6-4.6l-2.8-8.4l-3.2-9.4l-1.2-3.8l-1.6-3.4l-4.4-8.4l-4-8.8l-4.2-9l-4.4-8.2l-3.6-8.8l-3.4-9l-3.6-7.4
						l-1.2-3l-0.2,1.2l1.4,3.8L35.4,229.9z M32.4,215.5l1.6,4.2l3.6,7.4l3.4,9l3.6,8.8l4.4,8.2l2.8,6l-5-11.2l-4.4-11L38,226.3
						l-3.8-9.4l-1.4-3.6l-0.2,0.6L32.4,215.5z M51,245.3l-0.2-0.2l-4-10.4l-3.6-9.4l-4-8.4l-3.8-7.8l-1-2.4l-1.4,5.2l2,4.6l3.8,9.4
						l4.4,10.6l4.4,11l5,11.2l5.2,11.6l1.6,3.6l-2-6.4l-3.2-10.6L51,245.7V245.3z M43.6,224.1l-3.2-8.8l-3.4-8.2l-1.8-4.2l-0.2,1.2
						l-0.4,1.4l1.6,3.2l3.8,7.8L43.6,224.1z M44.6,219.7l-2.6-5.6l-2.8-6.6l-3.2-5.6l-0.2-0.6l-0.2,0.4l2.2,5l3.4,8.2l3.2,9l3.2,9.4
						l1,2.2l-0.4-1.4l-2.8-10.8L44.6,219.7z M43.6,215.5l-0.4-1.6l-2.2-8.8l-1.4-5.8l-2.2-3.2l-0.8,2.4l-0.6,1.8l0.8,1.2l3.2,5.6
						l2.8,6.6L43.6,215.5z M37,234.3l1.4,4.4l3.2,8.4l3.8,9l3,7.4l-2-5L42,247.1l-4-10.6L37,234.3z M74.6,304.9l0.4,1l1.6,3.4
						l0.4,0.8v-2.2l0.8-4.6l-2-4l-3.2-6.8l-3.8-9.6l-4-11l-4.4-11L56,250.1l-3.6-10.8l-4.2-9.6l-1.4-3.8l2.2,8.2l1.4,5.8l0.8,1.6
						l3.2,8.2l2.8,8.4l3.8,9.4l3.4,9.8l2.8,7.4l3.4,8.4l2.8,8L74.6,304.9z M50.8,270.1l1.4,3.8l2.4,5L50.8,270.1z M63.6,277.7
						l-1-2.4l-3.8-9.6l-4-10.4l-0.8-2.2l1,3.4l3.2,10.6l3,9.6l0.8,2.6l1.2,2.4l5,9.8l3.2,7.2l-1.8-5l-2.8-7.2l-3.2-8.6L63.6,277.7
						L63.6,277.7z M58.4,287.9l-2-3.8l0.8,1.8l4.4,11.2l4.4,8.8l3,6.2l2.8,4l3.2,3.8l1.6,3.2l0.2,0.2l-1-2.6l-0.2-1l-1.2-1l-2-2.2
						l-2.2-3l-2.6-5l-4-7.8l-3.8-9.2L58.4,287.9z M61.8,294.3l2.6,6l4,7.8l2.6,5l2.2,3l1.6,2.2H75l-0.8-2.4l-1.4-2.8l-0.4-0.6
						l-3.6-5.6l-4.2-7.6L61.8,294.3z M74.6,313.7l-1.4-4l-2.2-6.8l-2.8-7.2l-2.8-5.8l2.2,6l2.8,8.4l2.4,6.6l0.8,1.6L74.6,313.7z
						 M75.2,309.3l-0.4-0.8l-0.8-2.6l-3-5.8l-2-4.6l2.8,7l2.2,6.8l1.4,4.4l1.2,3.2l0.2,0.6l0.6-0.8l0.2-0.2l-0.4-2l-1.4-3.2
						L75.2,309.3z M75.8,317.1l-0.6-1.2l0.6,2V317.1z M76.4,319.5l0.2-0.2l-0.4-0.2L76.4,319.5z M76.8,320.1h-0.4l0.2,0.2l0.6,2
						l0.6-1.6h-0.4l-0.4-0.8L76.8,320.1z M80,309.1l-1.4-3.8l-0.2-0.6l-0.6,3.2l-0.2,3.6H77l0.6,1.2l0.2,1.4l0.4,0.8l0.4-0.6
						l0.2-0.6L80,309.1z M83.8,315.3h-0.2l-1,1.8l-1.2,2.2l-2.4,0.6l-0.2,0.8l-1.2,2.8H77l1,1l1.6,1.4l1.4-3.2l0.8-2.4l1.8-4.4
						l0.8-2.2l-0.2,0.2L83.8,315.3z M77.4,319.1l0.4,0.8l0.4-1l0.2-0.4l-0.2-0.4L77.4,319.1z M80.2,307.5l1.6-7.6l2-9l3.2-9.4
						l2.6-8.8l-2,4.4l-3.6,10l-3.4,8.8l-1.8,6l-0.2,1.4l0.8,1.6L80.2,307.5z M82.2,313.7l-0.4,1l-2.2,3.2l-0.4,0.8l0.2,0.4l1.6-0.6
						l0.8-1.8l1-1.8L82.2,313.7z M81.6,312.7l-0.4-1l-0.8,3.8l0.6-1.2L81.6,312.7z M82,311.7l0.6-1.8l2-5.6l1.8-8l2.4-8.6l3-10
						l3.4-9.8l0.6-3.4l2.8-8.8l-4,10.6l-4,12.4l-3.4,11.4l-2.6,7.8l-1.2,4.8l-2,7.8L82,311.7z M88.6,279.1l-0.8,2.8l-3.2,9.4l-2,8.6
						l-1,5.2l1-3.4l2.2-8.4l2.8-10L88.6,279.1z M82.6,312.7l0.6,1.4l0.4-0.6l1-3.6l1.2-4.6l1.6-5l2.2-7.2l0.6-1.4l2.8-13.2l0.8-4.2
						l-1.2,3.8l-3,10l-2.4,8.2l-1.8,8.4l-2,5.6L82.6,312.7z M88,301.9l0.2-1.2l-1.6,5l-1.2,4.6l0.8-1.6L88,301.9z M91,292.1
						l-2.2,9.8l-0.8,3.2l1.6-3.4l3.6-8.4l4.2-9.4l4.6-9.6l4.8-10.4l4.6-11.4l4-13.2l4.8-12.6l4-10.2l3.2-6.6v-0.8l-1.4,2.4l-2.8,4.4
						l-3.2,6l-4,8.2l-3.8,10l-4,10.8l-3.6,10l-3.6,9.2l-4.4,8l-3.2,7.8L91,292.1z M90.4,274.7l1.6-5l1.6-6l-0.8,2l-0.4,0.8l-1.2,4.6
						L90.4,274.7z M92,287.3l0.6-1.8l3.2-7.8l4.4-8l3.6-9.2l3.6-10l4-10.8l3.8-10l4-8.2l3.2-6l2.8-4.4l2-3.2l-0.2-4.4l-0.8-4
						l-0.8,1.4l-3.8,7.8l-4,9.4l-4.4,9.4l-4.8,9l-4.6,10.4l-4.2,10.2L96,267.9l-0.2,0.2l-2,10.4L92,287.3z M105.8,224.5l-1.4,3
						l-5,13.8L95,256.5l-1.4,5.6l1.4-3.2l0.4-1.8l3.8-13.2l4-13L105.8,224.5z M94,265.5l4.6-12.4l-3,6.2L94,265.5z M107.8,231.5
						l0.2-0.6l4-9.2l4.4-8l3.4-7.8l3.6-5.8l0.8-1.8l1.2-1.8l-0.8-2.2l-0.8-2l-1.8,0.8l-1.4,1.6l-1.6,3.2l-2.8,5.2l-3.6,7.6l-4.2,9
						l-4.4,11.6l-4,13l-2.8,10l1-2.6l4-8l1-2.8L107.8,231.5z M108.8,215.3l3-6.2l-4.6,8.8l-5,11.4l-3.6,11.4l5-13.6L108.8,215.3z
						 M99.8,254.7l3.2-8.2l4.6-10.4l4.8-9l4.4-9.4l4-9.4l1.2-2.4l-1.8,3l-1.2,2.6l-6.4,14.2l-7.2,13.4l-0.4,0.6l-0.6,1.6l-3.8,10.6
						L99.8,254.7z M115.4,217.5l-1.4,2.6l-4.2,9l2-3.8L115.4,217.5z M127.8,182.7l-1.4,1l-1.4,1.6l-2.4,4.4l-1.8,3.4l0.8-0.8
						l2.6-0.8l1.2,2.4l0.4,1.6l3.6-6l-0.6-3.8L127.8,182.7z M125.8,197.9l-1.4,2.2l-0.2,0.4l-1,2l2.6-4.4L125.8,197.9L125.8,197.9z
						 M128.4,182.3l1.2,3l0.4,3l0.2-0.2l3.8-5.2l-0.2-1.2l-1.6-5.6l-2.4,1.8l-1.6,2.4l-2.2,2.6l1.6-1L128.4,182.3z M129.8,193.7
						l-1,1.6l-2,3.2l1,5l0.2,2.8l0.8-2l1.4-2v-1.2L129.8,193.7z M129.8,191.7v-0.4l-0.2-0.6l-1.8,3.2L129.8,191.7z M130.2,203.7
						l-0.6,1l-1.4,3.2l-0.2,0.2l0.2,0.4l2-3.4V203.7z M132.2,256.1l-0.2-3.2l-0.6-11.6l-0.4-10.6l-0.2-9.4l-0.4-10.2v-4.6l-2,3.2
						l-0.2,0.2l0.6,8.6l0.8,8.8l1,10.6l0.6,11.2L132.2,256.1z M130.6,191.1l0.2-0.2l3-3.4l0.4-0.6l-0.2-2.6l-3,4.2l-0.6,1
						L130.6,191.1z M130.6,192.7l0.4,8.4l1-2.4l1.2-2h0.8l0.2,0.6l0.6-1.4l0.2-0.2l-0.4-4.4l-0.8-0.8l-1.6,0.4l-0.8,0.6L130.6,192.7
						z M131,202.7v1.2l0.4-0.6l1.8-4l0.4-0.8l-0.2-0.8l-0.6,1.4l-1.2,2.8L131,202.7z M133.4,265.5l1,6.8l1.2,10l0.4,7.2v2l1.6-7
						l0.6-9.4v-11.2v-5.4l-0.2-1.6v-5v-6.2l-1.2-10.6l-0.4-10l-0.6-8.4l-0.6-8.2l-0.6-5.6l-0.6-3.2l-1.8,4l-1.2,1.6l0.2,5.8
						l0.4,10.2l0.2,9.4l0.4,10.6l0.6,11.6l0.6,11L133.4,265.5L133.4,265.5z M134.8,282.3l-1-8.2l0.2,8.8v7l-0.2,6.2l-0.4,4.4
						l1.2-3.4l0.8-2.8l-0.2-4.8L134.8,282.3z M133.6,189.9l0.6-0.2l0.4,0.6v-0.2l-0.2-1.2l-0.8,0.8V189.9z M134.4,187.9h-0.2
						l-0.2,0.4L134.4,187.9z M134.4,198.7l1,4.2l-0.2-3.8l-0.2-1.8L134.4,198.7z M141.6,215.3l0.2,1.4v-2.6v-10.8l-0.4-10.4
						l-0.4-8.4v-5.4l-1-1.4l-1.8,1.4l-2.6,3l-0.8,1.2l0.2,2.8l1-0.8l1.6-2.2l0.8,0.4l0.4,3.2l0.2,6.6l1.4,9l0.8,9L141.6,215.3z
						 M137.2,186.7l0.2,4.2h0.2l0.6,4.8v1.8l1.2,4.2l0.2,1.4v-0.8l-1.4-9l-0.2-6.6l-0.2-2.4l-1.4,1.4l-1.2,1.4v0.2l1.4-1
						L137.2,186.7z M136.6,187.3l-1.4,1l0.2,1.8v1l1,1l0.4-1L136.6,187.3z M136.2,193.1l-0.2-0.2l-0.4-0.6v1.8l0.4-0.8L136.2,193.1z
						 M137.2,196.9l-0.2-0.6l-0.6-2l-0.6,1.4l0.2,3.4l0.6,9.4l0.6,9.4l0.6,10l0.6,7.2l-0.2-4.4l-0.2-10.6l-0.4-9l-0.2-8.8v-3.4
						L137.2,196.9z M138.4,284.5l-1.6,7.4l-0.6,2.6v1.2l0.4,4.8l1-5l0.6-8.8L138.4,284.5z M137.2,301.7l0.2-0.2l1.4,1.4l0.8-5.6
						l0.2-0.6l-0.2-4.8l-0.2-8.2l-0.4,3l-0.6,8.8L137.2,301.7z M138.4,200.9l0.4,5.2l0.2,7.8l0.6,8.8l1.4,8l0.8,8.8v-1.6v-12.2v-0.8
						l-0.4-3.8l-0.6-5.6l-1-7.2l-1.2-6.6L138.4,200.9z M139,277.7v-2.6l-0.6,9.2L139,277.7z M139.8,277.7l0.2,3l0.4,10.6l0.6-4.6
						l0.4-2.2l0.4-6.8v-13.6v-13.6v-5.6l-0.8-5.4l-0.8-8.8l-1.4-7.6l0.2,7.6l0.6,12l0.4,11.8v11v11.2L139.8,277.7z M139.2,262.9
						v-8.4l-0.4-11.8v3v6.2l0.2,6.6L139.2,262.9z M140.6,297.7v3v0.4l1.2-4.2l1.4-7l1-8.6v-10v-11.8v-12.2l-0.6-11.6l-0.4-3.6
						l0.2,8.6l0.4,11v6.8l0.2,10v8.2v6.2l-0.8,5.4l-1.6,4.6l-0.6,2.8L140.6,297.7z M143.2,276.9l-1,7.6l-0.4,4.4l-0.2,1.8l0.8-2.4
						l0.8-5.4L143.2,276.9L143.2,276.9z M142.8,246.1l-0.2-5.4v4.2L142.8,246.1z M143,258.5l-0.4-6.4v12v11.4l0.4-12V258.5z"/>
				</g>
			</g>
		</g>
	</g>
</g>
</svg>
